<?xml version="1.0" encoding="utf-8"?>
<!-- Generator: Adobe Illustrator 18.0.0, SVG Export Plug-In . SVG Version: 6.00 Build 0)  -->
<!DOCTYPE svg PUBLIC "-//W3C//DTD SVG 1.1//EN" "http://www.w3.org/Graphics/SVG/1.1/DTD/svg11.dtd">
<svg version="1.1" id="Capa_1" xmlns="http://www.w3.org/2000/svg" xmlns:xlink="http://www.w3.org/1999/xlink" x="0px" y="0px"
	 viewBox="0 0 39 39" enable-background="new 0 0 39 39" xml:space="preserve">
<g>
	<g>
		<defs>
			<rect id="SVGID_1_" x="1.2" y="1.2" width="36.7" height="36.7"/>
		</defs>
		<clipPath id="SVGID_2_">
			<use xlink:href="#SVGID_1_"  overflow="visible"/>
		</clipPath>
		<path clip-path="url(#SVGID_2_)" fill="#1B3F8A" d="M14.8,4.6c-2.7,0-5.3,1.1-7.2,3c-1.9,1.9-3,4.5-3,7.2c0,2.7,1.1,5.3,3,7.2
			c1.9,1.9,4.5,3,7.2,3c2.7,0,5.3-1.1,7.2-3c1.9-1.9,3-4.5,3-7.2c0-2.7-1.1-5.3-3-7.2C20.1,5.6,17.6,4.6,14.8,4.6 M21.1,21.1
			c-1.7,1.7-3.9,2.6-6.3,2.6c-2.4,0-4.6-0.9-6.3-2.6c-1.7-1.7-2.6-3.9-2.6-6.3c0-2.4,0.9-4.6,2.6-6.3c1.7-1.7,3.9-2.6,6.3-2.6
			c2.4,0,4.6,0.9,6.3,2.6c1.7,1.7,2.6,3.9,2.6,6.3C23.7,17.2,22.8,19.4,21.1,21.1"/>
		<path clip-path="url(#SVGID_2_)" fill="#1B3F8A" d="M18.9,18.9c-2.2,2.2-5.8,2.2-8.1,0c-1.1-1.1-1.7-2.5-1.7-4c0-1.5,0.6-3,1.7-4
			c0.3-0.3,0.3-0.7,0-1c-0.3-0.3-0.7-0.3-1,0c-1.3,1.3-2.1,3.1-2.1,5c0,1.9,0.7,3.7,2.1,5c1.4,1.4,3.2,2.1,5,2.1
			c1.8,0,3.6-0.7,5-2.1c0.3-0.3,0.3-0.7,0-1C19.6,18.6,19.1,18.6,18.9,18.9"/>
		<path clip-path="url(#SVGID_2_)" fill="#1B3F8A" d="M26.9,21.2c1-1.9,1.6-4.1,1.6-6.4c0-3.7-1.4-7.1-4-9.7c-2.6-2.6-6-4-9.7-4
			c-3.7,0-7.1,1.4-9.7,4c-2.6,2.6-4,6-4,9.7c0,3.7,1.4,7.1,4,9.7c2.6,2.6,6,4,9.7,4c2.3,0,4.5-0.5,6.4-1.6l9.8,9.7
			c0.8,0.8,1.8,1.2,2.8,1.2c1.1,0,2.1-0.4,2.8-1.2c0.8-0.8,1.2-1.8,1.2-2.8c0-1.1-0.4-2.1-1.2-2.8L26.9,21.2z M20,25.5
			c-1.6,0.8-3.3,1.2-5.1,1.2c-3.2,0-6.1-1.2-8.4-3.5C4.2,21,3,18,3,14.8c0-3.2,1.2-6.1,3.5-8.4C8.7,4.2,11.7,3,14.8,3
			C18,3,21,4.2,23.2,6.5c2.2,2.2,3.5,5.2,3.5,8.4c0,1.8-0.4,3.5-1.2,5.1c-0.3,0.5-0.6,1.1-0.9,1.6c-0.4,0.6-0.9,1.1-1.4,1.7
			c-0.5,0.5-1.1,1-1.7,1.4C21,24.9,20.5,25.2,20,25.5 M22.8,25.9c0.6-0.4,1.2-0.9,1.7-1.4c0.5-0.5,1-1.1,1.4-1.7l5.7,5.7
			c-0.8,1.2-1.9,2.3-3.1,3.1L22.8,25.9z M30.8,33.9l-1.3-1.3c1.2-0.8,2.3-1.9,3.1-3.1l1.3,1.3C33,31.9,31.9,33,30.8,33.9 M35.4,35.4
			c-0.4,0.4-1,0.6-1.6,0.6c-0.6,0-1.1-0.2-1.6-0.6l-0.5-0.5c1.2-0.8,2.3-1.9,3.1-3.1l0.5,0.5c0.4,0.4,0.6,1,0.6,1.6
			C36,34.4,35.8,35,35.4,35.4"/>
	</g>
</g>
</svg>
