<?xml version="1.0" encoding="utf-8"?>
<!-- Generator: Adobe Illustrator 18.0.0, SVG Export Plug-In . SVG Version: 6.00 Build 0)  -->
<!DOCTYPE svg PUBLIC "-//W3C//DTD SVG 1.1//EN" "http://www.w3.org/Graphics/SVG/1.1/DTD/svg11.dtd">
<svg version="1.1" id="Capa_1" xmlns="http://www.w3.org/2000/svg" xmlns:xlink="http://www.w3.org/1999/xlink" x="0px" y="0px"
	 viewBox="0 0 39 39" enable-background="new 0 0 39 39" xml:space="preserve">
<g>
	<path fill="#1F4D9A" d="M36.7,1.9c-10.9,0-15.5,2.2-17.2,3.3c-1.6-1.1-6.2-3.3-17.2-3.3c-0.6,0-1,0.5-1,1v28.4c0,0.6,0.5,1,1,1
		c13,0,16.4,3.2,16.4,3.3c0,0,0.1,0,0.1,0.1c0,0,0,0,0.1,0c0.1,0.1,0.2,0.1,0.2,0.1c0,0,0,0,0,0c0,0,0,0,0,0c0.1,0,0.2,0.1,0.3,0.1
		l0,0l0,0l0,0l0,0c0.1,0,0.2,0,0.3-0.1c0,0,0,0,0,0c0,0,0,0,0,0c0.1,0,0.2-0.1,0.2-0.1c0,0,0,0,0,0c0,0,0.1,0,0.1-0.1
		c0,0,3.4-3.3,16.4-3.3c0.6,0,1-0.5,1-1V2.9C37.7,2.4,37.2,1.9,36.7,1.9z M3.4,4c10.2,0.1,14.1,2.3,15.1,3v26
		c-2.2-1.1-6.6-2.6-15.1-2.7V4z M35.6,30.3c-8.5,0.1-13,1.6-15.1,2.7V7c1-0.7,4.9-2.9,15.1-3V30.3z"/>
	<g>
		<path fill="#1F4D9A" d="M15.7,11.5c-0.2,0-0.4-0.1-0.6-0.2c-2.1-1.4-5.9-1.7-8.7-1.7c-0.6,0-1-0.5-1-1c0-0.6,0.5-1,1-1
			c4.5,0,7.8,0.7,9.8,2c0.5,0.3,0.6,1,0.3,1.4C16.4,11.3,16.1,11.5,15.7,11.5z"/>
		<path fill="#1F4D9A" d="M15.7,16.9c-0.2,0-0.4-0.1-0.6-0.2C13.1,15.3,9.3,15,6.5,15c-0.6,0-1-0.5-1-1c0-0.6,0.5-1,1-1
			c4.5,0,7.8,0.7,9.8,2c0.5,0.3,0.6,1,0.3,1.4C16.4,16.7,16.1,16.9,15.7,16.9z"/>
		<path fill="#1F4D9A" d="M15.7,22.3c-0.2,0-0.4-0.1-0.6-0.2c-2.1-1.4-5.9-1.7-8.7-1.7c-0.6,0-1-0.5-1-1c0-0.6,0.5-1,1-1
			c4.5,0,7.8,0.7,9.8,2c0.5,0.3,0.6,1,0.3,1.4C16.4,22.2,16.1,22.3,15.7,22.3z"/>
		<path fill="#1F4D9A" d="M15.7,27.8c-0.2,0-0.4-0.1-0.6-0.2c-2.1-1.4-5.9-1.7-8.7-1.7c-0.6,0-1-0.5-1-1c0-0.6,0.5-1,1-1
			c4.5,0,7.8,0.7,9.8,2c0.5,0.3,0.6,1,0.3,1.4C16.4,27.6,16.1,27.8,15.7,27.8z"/>
	</g>
	<g>
		<path fill="#1F4D9A" d="M23.3,11.5c0.2,0,0.4-0.1,0.6-0.2c2.1-1.4,5.9-1.7,8.7-1.7c0.6,0,1-0.5,1-1c0-0.6-0.5-1-1-1
			c-4.5,0-7.8,0.7-9.8,2c-0.5,0.3-0.6,1-0.3,1.4C22.6,11.3,22.9,11.5,23.3,11.5z"/>
		<path fill="#1F4D9A" d="M23.3,16.9c0.2,0,0.4-0.1,0.6-0.2c2.1-1.4,5.9-1.7,8.7-1.7c0.6,0,1-0.5,1-1c0-0.6-0.5-1-1-1
			c-4.5,0-7.8,0.7-9.8,2c-0.5,0.3-0.6,1-0.3,1.4C22.6,16.7,22.9,16.9,23.3,16.9z"/>
		<path fill="#1F4D9A" d="M23.3,22.3c0.2,0,0.4-0.1,0.6-0.2c2.1-1.4,5.9-1.7,8.7-1.7c0.6,0,1-0.5,1-1c0-0.6-0.5-1-1-1
			c-4.5,0-7.8,0.7-9.8,2c-0.5,0.3-0.6,1-0.3,1.4C22.6,22.2,22.9,22.3,23.3,22.3z"/>
		<path fill="#1F4D9A" d="M23.3,27.8c0.2,0,0.4-0.1,0.6-0.2c2.1-1.4,5.9-1.7,8.7-1.7c0.6,0,1-0.5,1-1c0-0.6-0.5-1-1-1
			c-4.5,0-7.8,0.7-9.8,2c-0.5,0.3-0.6,1-0.3,1.4C22.6,27.6,22.9,27.8,23.3,27.8z"/>
	</g>
</g>
</svg>
