<?xml version="1.0" encoding="utf-8"?>
<!-- Generator: Adobe Illustrator 18.0.0, SVG Export Plug-In . SVG Version: 6.00 Build 0)  -->
<!DOCTYPE svg PUBLIC "-//W3C//DTD SVG 1.1//EN" "http://www.w3.org/Graphics/SVG/1.1/DTD/svg11.dtd">
<svg version="1.1" id="Capa_1" xmlns="http://www.w3.org/2000/svg" xmlns:xlink="http://www.w3.org/1999/xlink" x="0px" y="0px"
	 viewBox="0 0 60 57" enable-background="new 0 0 60 57" xml:space="preserve">
<g>
	<ellipse fill="#D9ECEA" cx="37.7" cy="21.8" rx="19.3" ry="20.8"/>
	<g>
		<g>
			<path fill="#1F4D9A" d="M51.1,52.7H4.7C2.7,52.7,1,51,1,49V18.8c0-2,1.7-3.7,3.7-3.7h46.4c2,0,3.7,1.7,3.7,3.7V49
				C54.8,51,53.2,52.7,51.1,52.7z M4.7,17.6c-0.7,0-1.2,0.5-1.2,1.2V49c0,0.7,0.5,1.2,1.2,1.2h46.4c0.7,0,1.2-0.5,1.2-1.2V18.8
				c0-0.7-0.5-1.2-1.2-1.2H4.7z"/>
		</g>
		<g>
			<path fill="#1F4D9A" d="M46.1,26.9h-7c-2,0-3.6-1.6-3.6-3.6s1.6-3.6,3.6-3.6h7c2,0,3.6,1.6,3.6,3.6S48.1,26.9,46.1,26.9z
				 M39.1,22.3c-0.6,0-1.1,0.5-1.1,1.1s0.5,1.1,1.1,1.1h7c0.6,0,1.1-0.5,1.1-1.1s-0.5-1.1-1.1-1.1H39.1z"/>
		</g>
		<g>
			<path fill="#1F4D9A" d="M19.6,47.2c-7.3,0-13.3-6-13.3-13.3c0-7.3,6-13.3,13.3-13.3c7.3,0,13.3,6,13.3,13.3
				C32.9,41.2,26.9,47.2,19.6,47.2z M19.6,23.1c-5.9,0-10.8,4.8-10.8,10.8c0,5.9,4.8,10.8,10.8,10.8c5.9,0,10.8-4.8,10.8-10.8
				C30.4,28,25.6,23.1,19.6,23.1z"/>
		</g>
		<g>
			<path fill="#1F4D9A" d="M19.6,42.4c-4.7,0-8.5-3.8-8.5-8.5c0-4.7,3.8-8.5,8.5-8.5c4.7,0,8.5,3.8,8.5,8.5
				C28.2,38.6,24.3,42.4,19.6,42.4z M19.6,27.9c-3.3,0-6,2.7-6,6c0,3.3,2.7,6,6,6c3.3,0,6-2.7,6-6C25.7,30.6,23,27.9,19.6,27.9z"/>
		</g>
		<g>
			<path fill="#1F4D9A" d="M21.6,17.6H5.7V14c0-2,1.7-3.7,3.7-3.7h8.5c2,0,3.7,1.7,3.7,3.7V17.6z M8.2,15.1h10.9V14
				c0-0.7-0.5-1.2-1.2-1.2H9.4c-0.7,0-1.2,0.5-1.2,1.2V15.1z"/>
		</g>
	</g>
</g>
</svg>
