<?xml version="1.0" encoding="utf-8"?>
<!-- Generator: Adobe Illustrator 18.0.0, SVG Export Plug-In . SVG Version: 6.00 Build 0)  -->
<!DOCTYPE svg PUBLIC "-//W3C//DTD SVG 1.1//EN" "http://www.w3.org/Graphics/SVG/1.1/DTD/svg11.dtd">
<svg version="1.1" id="Capa_1" xmlns="http://www.w3.org/2000/svg" xmlns:xlink="http://www.w3.org/1999/xlink" x="0px" y="0px"
	 viewBox="0 0 60 57" enable-background="new 0 0 60 57" xml:space="preserve">
<g>
	<ellipse fill="#D9ECEA" cx="40" cy="21.8" rx="19.3" ry="20.8"/>
	<g>
		<g>
			<path fill="#1F4D9A" d="M26.9,19.5c-3.5,0-6.3,2.8-6.3,6.3c0,0.8,0.2,1.6,0.4,2.3l5.9,11.7l5.9-11.7c0.3-0.7,0.4-1.5,0.4-2.3
				C33.3,22.3,30.4,19.5,26.9,19.5z M26.9,28.7c-1.6,0-2.9-1.3-2.9-2.9c0-1.6,1.3-2.9,2.9-2.9c1.6,0,2.9,1.3,2.9,2.9
				C29.8,27.4,28.5,28.7,26.9,28.7z"/>
		</g>
		<g>
			<path fill="#1F4D9A" d="M1.3,17.1c-0.5,0-1-0.4-1.2-0.9c-0.2-0.7,0.2-1.4,0.9-1.6l14.7-4.3c0.2-0.1,0.4-0.1,0.6,0L38,14.5
				l14.6-4.2c0.7-0.2,1.4,0.2,1.6,0.9c0.2,0.7-0.2,1.4-0.9,1.6L38.4,17c-0.2,0.1-0.4,0.1-0.6,0L16,12.8L1.6,17
				C1.5,17.1,1.4,17.1,1.3,17.1z"/>
		</g>
		<g>
			<path fill="#1F4D9A" d="M1.3,56.1c-0.5,0-1-0.4-1.2-0.9c-0.2-0.7,0.2-1.4,0.9-1.6l14.7-4.3c0.2-0.1,0.4-0.1,0.6,0L38,53.5
				l14.6-4.2c0.7-0.2,1.4,0.2,1.6,0.9c0.2,0.7-0.2,1.4-0.9,1.6L38.4,56c-0.2,0.1-0.4,0.1-0.6,0L16,51.8L1.6,56
				C1.5,56,1.4,56.1,1.3,56.1z"/>
		</g>
		<g>
			<path fill="#1F4D9A" d="M1.3,56.1c-0.7,0-1.3-0.6-1.3-1.3v-39c0-0.7,0.6-1.3,1.3-1.3c0.7,0,1.3,0.6,1.3,1.3v39
				C2.5,55.5,1.9,56.1,1.3,56.1z"/>
		</g>
		<g>
			<path fill="#1F4D9A" d="M15.9,51.8c-0.7,0-1.3-0.6-1.3-1.3v-39c0-0.7,0.6-1.3,1.3-1.3c0.7,0,1.3,0.6,1.3,1.3v39
				C17.2,51.2,16.6,51.8,15.9,51.8z"/>
		</g>
		<g>
			<path fill="#1F4D9A" d="M38,56c-0.7,0-1.3-0.6-1.3-1.3V15.8c0-0.7,0.6-1.3,1.3-1.3c0.7,0,1.3,0.6,1.3,1.3v38.9
				C39.2,55.4,38.7,56,38,56z"/>
		</g>
		<g>
			<path fill="#1F4D9A" d="M53,51.8c-0.7,0-1.3-0.6-1.3-1.3v-39c0-0.7,0.6-1.3,1.3-1.3c0.7,0,1.3,0.6,1.3,1.3v39
				C54.2,51.2,53.6,51.8,53,51.8z"/>
		</g>
		<g>
			<path fill="#1F4D9A" d="M1.3,50.1c-0.5,0-0.9-0.2-1.1-0.7c-0.3-0.6-0.1-1.4,0.5-1.7l14.7-7.6c0.1-0.1,0.3-0.1,0.4-0.1l21.8-2.5
				l14.8-7.7c0.6-0.3,1.4-0.1,1.7,0.5c0.3,0.6,0.1,1.4-0.5,1.7l-15,7.8c-0.1,0.1-0.3,0.1-0.4,0.1l-21.8,2.5L1.8,49.9
				C1.6,50,1.4,50.1,1.3,50.1z"/>
		</g>
	</g>
</g>
</svg>
