<?xml version="1.0" encoding="utf-8"?>
<!-- Generator: Adobe Illustrator 18.0.0, SVG Export Plug-In . SVG Version: 6.00 Build 0)  -->
<!DOCTYPE svg PUBLIC "-//W3C//DTD SVG 1.1//EN" "http://www.w3.org/Graphics/SVG/1.1/DTD/svg11.dtd">
<svg version="1.1" id="Capa_1" xmlns="http://www.w3.org/2000/svg" xmlns:xlink="http://www.w3.org/1999/xlink" x="0px" y="0px"
	 viewBox="0 0 60 57" enable-background="new 0 0 60 57" xml:space="preserve">
<g>
	<ellipse fill="#D9ECEA" cx="36.2" cy="21.8" rx="19.3" ry="20.8"/>
	<g>
		<g>
			<g>
				<g>
					<path fill="#1F4D9A" d="M26.2,36.1c0-0.2-0.2-2.6,0.2-4.7c0.4-2.2,0.9-6.3,0.9-6.3c0-6-4.3-9.2-6.4-9.2c-2.1,0-5.5,2.4-5.5,8.3
						c0,5.5,3.5,12.5,4,13.5L26.2,36.1z"/>
				</g>
				<g>
					<path fill="#1F4D9A" d="M27.9,40.4c-0.1-0.3-0.5-1.2-0.9-2.2l-7.1,1.6c0,0.4,0,0.8,0,1.3c0,3.3,1.1,7.5,4.7,7.5
						c3.6,0,4.1-3,4.1-4.4C28.7,42.9,28.1,40.9,27.9,40.4z"/>
				</g>
			</g>
			<g>
				<g>
					<path fill="#1F4D9A" d="M34.3,43.6c0-0.2,0.2-2.6-0.2-4.7c-0.4-2.2-0.9-6.3-0.9-6.3c0-6,4.3-9.2,6.4-9.2c2.1,0,5.5,2.4,5.5,8.3
						c0,5.5-3.5,12.5-4,13.5L34.3,43.6z"/>
				</g>
				<g>
					<path fill="#1F4D9A" d="M32.6,47.8c0.1-0.3,0.5-1.2,0.9-2.2l7.1,1.6c0,0.4,0,0.8,0,1.3c0,3.3-1.1,7.5-4.7,7.5
						c-3.6,0-4.1-3-4.1-4.4C31.8,50.3,32.4,48.4,32.6,47.8z"/>
				</g>
			</g>
		</g>
		<g>
			<path fill="#1F4D9A" d="M46.7,52.6h-33c-3.3,0-6-2.7-6-6V16.3c0-3.3,2.7-6,6-6h33c3.3,0,6,2.7,6,6v30.3
				C52.7,49.9,50.1,52.6,46.7,52.6z M13.7,12.8c-1.9,0-3.5,1.6-3.5,3.5v30.3c0,1.9,1.6,3.5,3.5,3.5h33c1.9,0,3.5-1.6,3.5-3.5V16.3
				c0-1.9-1.6-3.5-3.5-3.5H13.7z"/>
		</g>
	</g>
</g>
</svg>
