<?xml version="1.0" encoding="utf-8"?>
<!-- Generator: Adobe Illustrator 18.0.0, SVG Export Plug-In . SVG Version: 6.00 Build 0)  -->
<!DOCTYPE svg PUBLIC "-//W3C//DTD SVG 1.1//EN" "http://www.w3.org/Graphics/SVG/1.1/DTD/svg11.dtd">
<svg version="1.1" id="Capa_1" xmlns="http://www.w3.org/2000/svg" xmlns:xlink="http://www.w3.org/1999/xlink" x="0px" y="0px"
	 viewBox="0 0 60 57" enable-background="new 0 0 60 57" xml:space="preserve">
<g>
	<ellipse fill="#D9ECEA" cx="37" cy="21.8" rx="19.3" ry="20.8"/>
	<g>
		<g>
			<path fill="#1F4D9A" d="M32.3,52.6h-23c-3.3,0-6-2.7-6-6V16.3c0-3.3,2.7-6,6-6h23c3.3,0,6,2.7,6,6v30.3
				C38.3,49.9,35.6,52.6,32.3,52.6z M9.3,12.8c-1.9,0-3.5,1.6-3.5,3.5v30.3c0,1.9,1.6,3.5,3.5,3.5h23c1.9,0,3.5-1.6,3.5-3.5V16.3
				c0-1.9-1.6-3.5-3.5-3.5H9.3z"/>
		</g>
		<g>
			<g>
				<path fill="#1F4D9A" d="M30.1,21.5H11.5c-0.7,0-1.3-0.6-1.3-1.3s0.6-1.3,1.3-1.3h18.6c0.7,0,1.3,0.6,1.3,1.3
					S30.8,21.5,30.1,21.5z"/>
			</g>
			<g>
				<path fill="#1F4D9A" d="M30.1,32.7H11.5c-0.7,0-1.3-0.6-1.3-1.3s0.6-1.3,1.3-1.3h18.6c0.7,0,1.3,0.6,1.3,1.3
					S30.8,32.7,30.1,32.7z"/>
			</g>
			<g>
				<path fill="#1F4D9A" d="M30.1,43.9H11.5c-0.7,0-1.3-0.6-1.3-1.3c0-0.7,0.6-1.3,1.3-1.3h18.6c0.7,0,1.3,0.6,1.3,1.3
					C31.3,43.3,30.8,43.9,30.1,43.9z"/>
			</g>
		</g>
		<g>
			<path fill="#1F4D9A" d="M54.2,51.1c-0.6,0-1.3-0.2-1.8-0.7L41,39c-1-1-1-2.6,0-3.5c1-1,2.6-1,3.5,0L56,46.8c1,1,1,2.6,0,3.5
				C55.5,50.9,54.8,51.1,54.2,51.1z"/>
		</g>
		<g opacity="0.5">
			<circle fill="#FFFFFF" cx="33.3" cy="27.7" r="9.5"/>
		</g>
		<path fill="#FFFFFF" d="M33.3,14.3c-7.4,0-13.4,6-13.4,13.4c0,7.4,6,13.4,13.4,13.4s13.4-6,13.4-13.4
			C46.7,20.3,40.7,14.3,33.3,14.3z M33.3,37.2c-5.3,0-9.6-4.3-9.6-9.6c0-5.3,4.3-9.6,9.6-9.6c5.3,0,9.6,4.3,9.6,9.6
			C42.8,33,38.6,37.2,33.3,37.2z"/>
		<path fill="#1F4D9A" d="M33.3,42.4c-8.1,0-14.7-6.6-14.7-14.7c0-8.1,6.6-14.7,14.7-14.7C41.4,13,48,19.6,48,27.7
			C48,35.8,41.4,42.4,33.3,42.4z M33.3,15.5c-6.7,0-12.2,5.5-12.2,12.2c0,6.7,5.5,12.2,12.2,12.2c6.7,0,12.2-5.5,12.2-12.2
			C45.5,21,40,15.5,33.3,15.5z M33.3,38.5c-6,0-10.8-4.8-10.8-10.8c0-6,4.8-10.8,10.8-10.8c6,0,10.8,4.8,10.8,10.8
			C44.1,33.7,39.2,38.5,33.3,38.5z M33.3,19.4c-4.6,0-8.3,3.7-8.3,8.3c0,4.6,3.7,8.3,8.3,8.3c4.6,0,8.3-3.7,8.3-8.3
			C41.6,23.1,37.9,19.4,33.3,19.4z"/>
	</g>
</g>
</svg>
