<?xml version="1.0" encoding="utf-8"?>
<!-- Generator: Adobe Illustrator 18.0.0, SVG Export Plug-In . SVG Version: 6.00 Build 0)  -->
<!DOCTYPE svg PUBLIC "-//W3C//DTD SVG 1.1//EN" "http://www.w3.org/Graphics/SVG/1.1/DTD/svg11.dtd">
<svg version="1.1" id="Capa_1" xmlns="http://www.w3.org/2000/svg" xmlns:xlink="http://www.w3.org/1999/xlink" x="0px" y="0px"
	 viewBox="0 0 39 39" enable-background="new 0 0 39 39" xml:space="preserve">
<g>
	<g>
		<defs>
			<rect id="SVGID_1_" x="0.2" y="0.8" width="38.6" height="37.9"/>
		</defs>
		<clipPath id="SVGID_2_">
			<use xlink:href="#SVGID_1_"  overflow="visible"/>
		</clipPath>
		<path clip-path="url(#SVGID_2_)" fill="#1B3F8A" d="M17.2,38.7c-2,0-3.5-1.6-3.5-3.6c0-2,1.6-3.6,3.5-3.6c2,0,3.6,1.6,3.6,3.6
			C20.8,37.1,19.2,38.7,17.2,38.7 M17.2,33.2c-1.1,0-1.9,0.9-1.9,1.9c0,1.1,0.9,1.9,1.9,1.9c1.1,0,1.9-0.9,1.9-1.9
			C19.2,34.1,18.3,33.2,17.2,33.2"/>
		<path clip-path="url(#SVGID_2_)" fill="#1B3F8A" d="M34.9,38.7c-2,0-3.5-1.6-3.5-3.6c0-2,1.6-3.6,3.5-3.6c2,0,3.5,1.6,3.5,3.6
			C38.4,37.1,36.8,38.7,34.9,38.7 M34.9,33.2c-1.1,0-1.9,0.9-1.9,1.9c0,1.1,0.9,1.9,1.9,1.9c1.1,0,1.9-0.9,1.9-1.9
			C36.8,34.1,36,33.2,34.9,33.2"/>
		<path clip-path="url(#SVGID_2_)" fill="#1B3F8A" d="M37.6,6.5H9.3L8.1,1.6C8,1.1,7.5,0.8,7,0.8H1.2c-0.6,0-1.1,0.5-1.1,1.1
			c0,0.6,0.5,1.1,1.1,1.1h5l1.2,4.9l4,16.1v0l1.5,5.8c0.1,0.5,0.5,0.8,1,0.8h23.7c0.6,0,1.1-0.5,1.1-1.1c0-0.6-0.5-1.1-1.1-1.1H14.8
			l-0.9-3.7H18h0h5.5h0h0H29h5.5h0h3.2c0.6,0,1.1-0.5,1.1-1.1V7.6C38.7,7,38.2,6.5,37.6,6.5 M36.6,14.5h-3.3l-1.5-5.9h4.7V14.5z
			 M29.8,22.6l-1.5-5.9h3.3l1.5,5.9H29.8z M24.3,22.6l-1.5-5.9h3.3l1.5,5.9H24.3z M18.8,22.6l-1.5-5.9h3.3l1.5,5.9H18.8z M18.6,8.7
			l1.5,5.9h-3.3l-1.5-5.9H18.6z M24.1,8.7l1.5,5.9h-3.3l-1.5-5.9H24.1z M27.8,14.5l-1.5-5.9h3.3l1.5,5.9H27.8z M13.1,8.7l1.5,5.9
			h-3.3L9.8,8.7H13.1z M11.8,16.7h3.3l1.5,5.9h-3.3L11.8,16.7z M35.3,22.6l-1.5-5.9h2.7v5.9H35.3z"/>
	</g>
</g>
</svg>
