<?xml version="1.0" encoding="utf-8"?>
<!-- Generator: Adobe Illustrator 18.0.0, SVG Export Plug-In . SVG Version: 6.00 Build 0)  -->
<!DOCTYPE svg PUBLIC "-//W3C//DTD SVG 1.1//EN" "http://www.w3.org/Graphics/SVG/1.1/DTD/svg11.dtd">
<svg version="1.1" id="Capa_1" xmlns="http://www.w3.org/2000/svg" xmlns:xlink="http://www.w3.org/1999/xlink" x="0px" y="0px"
	 viewBox="0 0 39 39" enable-background="new 0 0 39 39" xml:space="preserve">
<g>
	<g>
		<path fill="#1F4D9A" d="M19.5,26c-3.7,0-6.8-3-6.8-6.8c0-3.7,3-6.8,6.8-6.8c3.7,0,6.8,3.1,6.8,6.8C26.4,23,23.3,26,19.5,26z
			 M19.5,14.2c-2.8,0-5,2.2-5,5c0,2.8,2.2,5,5,5c2.8,0,5-2.2,5-5C24.6,16.5,22.3,14.2,19.5,14.2z"/>
		<path fill="#1F4D9A" d="M3.9,9.3l3.3,4.6C7.2,14,7.1,14.2,7,14.3l-5.5,0.9c-0.5,0.1-0.9,0.5-1,1c-0.2,1-0.3,2.1-0.3,3.1
			c0,1,0.1,2.1,0.3,3.1c0.1,0.5,0.5,0.9,1,1L7,24.2c0.1,0.1,0.1,0.3,0.2,0.4l-3.3,4.7C3.8,29.4,3.7,30,3.7,30H3.6
			c-0.1,0,0,0.4,0.2,0.7C5,32.4,6.5,33.8,8.2,35c0.2,0.2,0.5,0.2,0.7,0.2c0.3,0,0.5-0.1,0.7-0.3l4.4-3.2c0.1,0,0.2,0.1,0.3,0.1
			l0.9,5.5c0.1,0.5,0.5,1.1,1,1.2c1,0.2,2.1,0.5,3.1,0.5c0,0,0,0,0,0s0,0,0,0c1.1,0,2.2-0.4,3.2-0.6c0.5-0.1,0.9-0.5,1-1l0.9-5.5
			c0.1,0,0.2-0.1,0.3-0.2l4.4,3.2c0.2,0.2,0.5,0.2,0.7,0.2c0.3,0,0.5-0.1,0.7-0.2c1.7-1.2,3.2-2.5,4.4-4.2c0.2-0.3,0.2-0.7,0.2-0.7
			h-0.1c0,0-0.1-0.6-0.2-0.7l-3.3-4.6c0.1-0.1,0.1-0.3,0.2-0.4l5.5-0.9c0.5-0.1,0.9-0.5,1-1c0.2-1,0.3-2.1,0.3-3.1
			c0-1-0.1-2.1-0.3-3.1c-0.1-0.5-0.5-0.9-1-1L32,14.3c-0.1-0.1-0.1-0.3-0.2-0.4l3.3-4.4c0.1-0.2,0.2,0.5,0.2-0.5h0.1
			c0,0,0-0.7-0.2-0.9c-1.2-1.7-2.7-3.2-4.4-4.5c-0.2-0.2-0.5-0.2-0.7-0.2c-0.3,0-0.5,0.1-0.8,0.2l-4.5,3.2c-0.1,0-0.2-0.1-0.3-0.1
			l-0.9-5.5c-0.1-0.5-0.5-0.9-1-1c-1-0.2-2.1-0.3-3.2-0.3c-1.1,0-2.1,0.1-3.2,0.3c-0.5,0.1-0.9,0.5-1,1l-0.9,5.5
			c-0.1,0-0.2,0.1-0.3,0.1L9.7,3.6C9.5,3.4,9.2,3.4,8.9,3.4c-0.3,0-0.5,0.1-0.7,0.2C6.5,4.8,5,6.4,3.8,8.1C3.6,8.3,3.5,9,3.6,9
			l0.2,0.2 M36.2,21.1L31,22c-0.4,0.1-0.8,0.4-0.9,0.8c-0.2,0.5-0.4,1-0.6,1.4c-0.2,0.4-0.2,0.9,0.1,1.2l3.1,4.3
			c-0.8,1-1.7,1.9-2.6,2.6l-4.3-3.1c-0.2-0.1-0.4-0.2-0.7-0.2c-0.2,0-0.5,0-0.7,0.1c-0.4,0.2-0.9,0.4-1.4,0.6
			c-0.4,0.1-0.7,0.5-0.8,0.9L21.3,36c-0.6,0.1-1.2,0.1-1.8,0.1c-0.6,0-1.2,0-1.8-0.1l-0.8-5.3c-0.1-0.4-0.4-0.8-0.8-0.9
			c-0.5-0.2-1-0.4-1.4-0.6c-0.2-0.1-0.4-0.1-0.7-0.1c-0.2,0-0.5,0.1-0.7,0.2L9,32.4c-1-0.8-1.9-1.7-2.6-2.6l3.1-4.3
			c0.3-0.4,0.3-0.8,0.1-1.2c-0.2-0.5-0.4-0.9-0.6-1.4C8.9,22.4,8.5,22.1,8,22l-5.3-0.8c-0.1-0.6-0.1-1.3-0.1-1.9
			c0-0.6,0-1.3,0.1-1.9L8,16.5c0.4-0.1,0.8-0.4,0.9-0.8c0.2-0.5,0.4-1,0.6-1.4c0.2-0.4,0.2-0.9-0.1-1.2L6.3,8.7C7.1,7.7,8,6.9,9,6.1
			l4.3,3.1c0.2,0.2,0.5,0.2,0.7,0.2c0.2,0,0.4,0,0.6-0.1c0.5-0.2,1-0.4,1.4-0.6c0.4-0.1,0.7-0.5,0.8-0.9l0.8-5.3
			c0.6-0.1,1.2-0.1,1.8-0.1c0.6,0,1.2,0,1.8,0.1l0.8,5.3c0.1,0.4,0.4,0.8,0.8,0.9c0.5,0.2,0.9,0.4,1.4,0.6c0.2,0.1,0.4,0.1,0.6,0.1
			c0.2,0,0.5-0.1,0.7-0.2L30,6.1c1,0.8,1.9,1.7,2.6,2.6l-3.1,4.3c-0.3,0.4-0.3,0.8-0.1,1.2c0.2,0.5,0.4,0.9,0.6,1.4
			c0.1,0.4,0.5,0.7,0.9,0.8l5.3,0.8c0.1,0.6,0.1,1.3,0.1,1.9C36.3,19.9,36.3,20.5,36.2,21.1z"/>
	</g>
</g>
</svg>
