<?xml version="1.0" encoding="utf-8"?>
<!-- Generator: Adobe Illustrator 18.0.0, SVG Export Plug-In . SVG Version: 6.00 Build 0)  -->
<!DOCTYPE svg PUBLIC "-//W3C//DTD SVG 1.1//EN" "http://www.w3.org/Graphics/SVG/1.1/DTD/svg11.dtd">
<svg version="1.1" id="Capa_1" xmlns="http://www.w3.org/2000/svg" xmlns:xlink="http://www.w3.org/1999/xlink" x="0px" y="0px"
	 viewBox="0 0 39 39" enable-background="new 0 0 39 39" xml:space="preserve">
<path fill="#1F4D9A" d="M33.5,6.1c-3.6-3.7-8.4-5.9-13.6-6C14.8,0,9.9,1.9,6.1,5.5c-6.6,6.3-7.9,16.1-3.3,23.9
	c0.4,0.7,0.9,1.4,1.4,2.1c0,0,0,0,0,0c0.4,0.5,0.8,1,1.2,1.4c1,1,2.1,2,3.4,2.8c0.9,0.6,1.9,1.1,2.9,1.6c2.3,1,4.8,1.6,7.3,1.6
	c2.5,0.1,5-0.4,7.4-1.3c2.4-0.9,4.6-2.3,6.4-4.1c0.4-0.4,0.8-0.8,1.3-1.4l0,0l0,0C40.7,24.6,40.4,13.4,33.5,6.1z M8,7.4
	c3.2-3.1,7.5-4.7,11.9-4.6c4.5,0.1,8.6,1.9,11.7,5.2c5.3,5.6,6.1,13.9,2.2,20.2c0-0.1-0.1-0.1-0.1-0.2c0-0.1-0.1-0.2-0.1-0.4
	c-0.1-0.2-0.2-0.4-0.2-0.6c0-0.1-0.1-0.2-0.2-0.3c-0.1-0.2-0.2-0.4-0.3-0.6c0-0.1-0.1-0.2-0.1-0.2c-0.2-0.3-0.3-0.5-0.5-0.8
	c0,0,0-0.1-0.1-0.1c-0.2-0.2-0.3-0.4-0.5-0.6c-0.1-0.1-0.1-0.1-0.2-0.2c-0.1-0.1-0.3-0.3-0.4-0.4c-0.1-0.1-0.2-0.2-0.2-0.2
	c-0.1-0.1-0.3-0.2-0.4-0.4c-0.1-0.1-0.2-0.1-0.3-0.2c-0.2-0.1-0.3-0.2-0.5-0.3c-0.1-0.1-0.2-0.1-0.2-0.2c-0.3-0.1-0.5-0.3-0.8-0.4
	c0,0,0,0-0.1,0c-0.3-0.1-0.5-0.2-0.8-0.3c-0.1,0-0.2-0.1-0.3-0.1c-0.2-0.1-0.4-0.1-0.6-0.2c-0.1,0-0.2-0.1-0.3-0.1
	c-0.2-0.1-0.4-0.1-0.6-0.1c-0.1,0-0.2,0-0.4-0.1c-0.2,0-0.5-0.1-0.7-0.1c-0.1,0-0.2,0-0.3,0C24,21,23.7,21,23.3,21
	c-0.3,0-0.6,0.1-0.8,0.3l-3.1,2.3l-3-2.4c-0.2-0.2-0.5-0.3-0.8-0.3c-0.4,0-0.7,0-1.1,0c-0.1,0-0.2,0-0.3,0c-0.2,0-0.5,0-0.7,0.1
	c-0.1,0-0.2,0-0.4,0c-0.2,0-0.4,0.1-0.6,0.1c-0.1,0-0.2,0-0.4,0.1c-0.2,0-0.4,0.1-0.6,0.2c-0.1,0-0.2,0.1-0.3,0.1
	c-0.3,0.1-0.5,0.2-0.8,0.3c0,0,0,0-0.1,0c-0.3,0.1-0.6,0.2-0.8,0.4c-0.1,0-0.2,0.1-0.2,0.1c-0.2,0.1-0.4,0.2-0.5,0.3
	c-0.1,0.1-0.2,0.1-0.3,0.2C8.4,22.8,8.2,23,8,23.1c-0.1,0.1-0.2,0.1-0.3,0.2c-0.2,0.1-0.3,0.3-0.4,0.4c-0.1,0.1-0.2,0.1-0.2,0.2
	c-0.2,0.2-0.3,0.4-0.5,0.6c0,0-0.1,0.1-0.1,0.1C6.4,24.8,6.2,25,6,25.3c-0.1,0.1-0.1,0.2-0.2,0.2c-0.1,0.2-0.2,0.4-0.3,0.6
	c-0.1,0.1-0.1,0.2-0.2,0.3c-0.1,0.2-0.2,0.4-0.3,0.6C5,27.1,5,27.2,4.9,27.3c0,0.1-0.1,0.1-0.1,0.2C1.2,20.9,2.4,12.7,8,7.4z
	 M25.5,35.1c-4.1,1.6-8.7,1.5-12.7-0.3c-0.9-0.4-1.7-0.8-2.5-1.3c-1.1-0.7-2-1.5-2.9-2.4c-0.2-0.2-0.4-0.5-0.7-0.7
	c0-0.1,0-0.1,0-0.2c0-0.1,0.1-0.2,0.1-0.4c0-0.2,0.1-0.3,0.1-0.5c0-0.1,0.1-0.2,0.1-0.3c0-0.1,0.1-0.3,0.2-0.4
	c0-0.1,0.1-0.2,0.1-0.3c0.1-0.1,0.1-0.3,0.2-0.4c0-0.1,0.1-0.2,0.2-0.3c0.1-0.1,0.1-0.2,0.2-0.4C8,27.1,8.1,27,8.1,26.9
	c0.1-0.1,0.1-0.2,0.2-0.3c0.1-0.1,0.1-0.2,0.2-0.3c0.1-0.1,0.2-0.2,0.2-0.3c0.1-0.1,0.1-0.2,0.2-0.2c0.1-0.1,0.2-0.2,0.3-0.3
	c0.1-0.1,0.2-0.1,0.2-0.2c0.1-0.1,0.2-0.2,0.3-0.2c0.1-0.1,0.2-0.1,0.3-0.2c0.1-0.1,0.2-0.1,0.3-0.2c0.1-0.1,0.2-0.1,0.3-0.2
	c0.1-0.1,0.2-0.1,0.3-0.2c0.1,0,0.2-0.1,0.3-0.1c0.1-0.1,0.2-0.1,0.4-0.1c0.1,0,0.2-0.1,0.3-0.1c0.1,0,0.3-0.1,0.4-0.1
	c0.1,0,0.2-0.1,0.3-0.1c0.1,0,0.3-0.1,0.5-0.1c0.1,0,0.2,0,0.3,0c0.2,0,0.4,0,0.5-0.1c0.1,0,0.2,0,0.3,0c0.3,0,0.6,0,0.8,0l3.4,2.8
	c0.5,0.4,1.1,0.4,1.6,0l3.6-2.6c0.3,0,0.6,0,0.8,0.1c0.1,0,0.2,0,0.3,0c0.2,0,0.4,0.1,0.5,0.1c0.1,0,0.2,0,0.3,0.1
	c0.2,0,0.3,0.1,0.4,0.1c0.1,0,0.2,0.1,0.3,0.1c0.1,0,0.3,0.1,0.4,0.1c0.1,0,0.2,0.1,0.3,0.1c0.1,0.1,0.3,0.1,0.4,0.2
	c0.1,0,0.2,0.1,0.3,0.1c0.1,0.1,0.2,0.1,0.3,0.2c0.1,0.1,0.2,0.1,0.3,0.2c0.1,0.1,0.2,0.1,0.3,0.2c0.1,0.1,0.2,0.1,0.2,0.2
	c0.1,0.1,0.2,0.2,0.3,0.2c0.1,0.1,0.1,0.1,0.2,0.2c0.1,0.1,0.2,0.2,0.3,0.3c0.1,0.1,0.1,0.2,0.2,0.2c0.1,0.1,0.2,0.2,0.2,0.3
	c0.1,0.1,0.1,0.2,0.2,0.3c0.1,0.1,0.1,0.2,0.2,0.3c0.1,0.1,0.1,0.2,0.2,0.3c0.1,0.1,0.1,0.2,0.2,0.4c0,0.1,0.1,0.2,0.2,0.3
	c0.1,0.1,0.1,0.3,0.2,0.4c0,0.1,0.1,0.2,0.1,0.3c0,0.1,0.1,0.3,0.1,0.4c0,0.1,0.1,0.2,0.1,0.4c0,0.1,0.1,0.3,0.1,0.5
	c0,0.1,0.1,0.2,0.1,0.4c0,0.1,0,0.1,0,0.2c-0.2,0.3-0.5,0.5-0.7,0.7C29.4,33.1,27.6,34.3,25.5,35.1z"/>
<path fill="#1F4D9A" d="M19,20c-4-0.1-7.3-3.5-7.2-7.5c0.1-4,3.5-7.3,7.5-7.2c4,0.1,7.3,3.5,7.2,7.5C26.4,16.9,23.1,20.1,19,20z
	 M19.3,8c-2.6-0.1-4.7,2-4.8,4.6c-0.1,2.6,2,4.7,4.6,4.8c2.6,0.1,4.7-2,4.8-4.6C24,10.2,21.9,8,19.3,8z"/>
</svg>
