<?xml version="1.0" encoding="utf-8"?>
<!-- Generator: Adobe Illustrator 18.0.0, SVG Export Plug-In . SVG Version: 6.00 Build 0)  -->
<!DOCTYPE svg PUBLIC "-//W3C//DTD SVG 1.1//EN" "http://www.w3.org/Graphics/SVG/1.1/DTD/svg11.dtd">
<svg version="1.1" id="Capa_1" xmlns="http://www.w3.org/2000/svg" xmlns:xlink="http://www.w3.org/1999/xlink" x="0px" y="0px"
	 viewBox="0 0 39 39" enable-background="new 0 0 39 39" xml:space="preserve">
<path fill="#1B3F8A" d="M12.2,38.7c0-2.7,3.3-3.8,7.5-3.8c4.2,0,7.5,1.1,7.5,3.8"/>
<path fill="#1B3F8A" d="M24.6,38.7c0-1.1-2.2-1.3-4.9-1.3"/>
<path fill="#1B3F8A" d="M19.7,37.4c-2.8,0-4.9,0.2-4.9,1.3"/>
<path fill="#1B3F8A" d="M19.7,37.9c-0.4,0-0.7-0.2-1-0.5C18.2,36.9,6.9,22.8,6.9,13.2c0-7.1,5.8-12.8,12.8-12.8
	c7.1,0,12.8,5.8,12.8,12.8c0,9.5-11.4,23.7-11.8,24.2C20.4,37.8,20,37.9,19.7,37.9 M19.7,2.9C14,2.9,9.4,7.6,9.4,13.2
	c0,7.1,7.6,17.8,10.3,21.4C22.4,31,30,20.4,30,13.2C30,7.6,25.3,2.9,19.7,2.9"/>
<path fill="#1B3F8A" d="M19.7,20.2c-3.8,0-6.9-3.1-6.9-6.9c0-3.8,3.1-6.9,6.9-6.9s6.9,3.1,6.9,6.9C26.5,17.1,23.5,20.2,19.7,20.2
	 M19.7,9c-2.4,0-4.4,2-4.4,4.4c0,2.4,2,4.4,4.4,4.4c2.4,0,4.4-2,4.4-4.4C24,10.9,22.1,9,19.7,9"/>
<polyline fill="none" points="32.5,47.7 32.5,-0.6 3.6,0.4 3.6,48.7 "/>
</svg>
