<?xml version="1.0" encoding="utf-8"?>
<!-- Generator: Adobe Illustrator 18.0.0, SVG Export Plug-In . SVG Version: 6.00 Build 0)  -->
<!DOCTYPE svg PUBLIC "-//W3C//DTD SVG 1.1//EN" "http://www.w3.org/Graphics/SVG/1.1/DTD/svg11.dtd">
<svg version="1.1" id="Capa_1" xmlns="http://www.w3.org/2000/svg" xmlns:xlink="http://www.w3.org/1999/xlink" x="0px" y="0px"
	 viewBox="0 0 38 32" enable-background="new 0 0 38 32" xml:space="preserve">
<g>
	<defs>
		<rect id="SVGID_1_" x="6.4" y="3.7" width="24.3" height="24.3"/>
	</defs>
	<clipPath id="SVGID_2_">
		<use xlink:href="#SVGID_1_"  overflow="visible"/>
	</clipPath>
</g>
<path fill="#1F4D9A" d="M15.4,5.9c-1.8,0-3.5,0.7-4.8,2c-1.3,1.3-2,3-2,4.8c0,1.8,0.7,3.5,2,4.8c1.3,1.3,3,2,4.8,2
	c1.8,0,3.5-0.7,4.8-2c1.3-1.3,2-3,2-4.8c0-1.8-0.7-3.5-2-4.8C18.9,6.6,17.2,5.9,15.4,5.9 M19.6,16.9c-1.1,1.1-2.6,1.7-4.2,1.7
	c-1.6,0-3.1-0.6-4.2-1.7c-1.1-1.1-1.7-2.6-1.7-4.2c0-1.6,0.6-3.1,1.7-4.2c1.1-1.1,2.6-1.7,4.2-1.7c1.6,0,3,0.6,4.2,1.7
	c1.1,1.1,1.7,2.6,1.7,4.2C21.3,14.3,20.7,15.8,19.6,16.9"/>
<path fill="#1F4D9A" d="M18.1,15.4c-1.5,1.5-3.9,1.5-5.3,0c-0.7-0.7-1.1-1.7-1.1-2.7c0-1,0.4-2,1.1-2.7c0.2-0.2,0.2-0.5,0-0.6
	c-0.2-0.2-0.5-0.2-0.6,0c-0.9,0.9-1.4,2.1-1.4,3.3c0,1.3,0.5,2.4,1.4,3.3c0.9,0.9,2.1,1.4,3.3,1.4c1.2,0,2.4-0.5,3.3-1.4
	c0.2-0.2,0.2-0.5,0-0.6C18.5,15.2,18.3,15.2,18.1,15.4"/>
<path fill="#1F4D9A" d="M29.9,23.4l-6.5-6.5c0.7-1.3,1-2.7,1-4.2c0-2.4-0.9-4.7-2.7-6.4c-1.7-1.7-4-2.7-6.4-2.7
	C13,3.7,10.7,4.6,9,6.3c-1.7,1.7-2.7,4-2.7,6.4c0,2.4,0.9,4.7,2.7,6.4c1.7,1.7,4,2.7,6.4,2.7c1.5,0,3-0.4,4.2-1l6.5,6.5
	c0.5,0.5,1.2,0.8,1.9,0.8c0.7,0,1.4-0.3,1.9-0.8c0.5-0.5,0.8-1.2,0.8-1.9C30.6,24.6,30.4,23.9,29.9,23.4z M18.8,19.8
	c-1,0.5-2.2,0.8-3.4,0.8c-2.1,0-4.1-0.8-5.6-2.3c-1.5-1.5-2.3-3.5-2.3-5.5c0-2.1,0.8-4.1,2.3-5.5c1.5-1.5,3.5-2.3,5.6-2.3
	c2.1,0,4.1,0.8,5.5,2.3c1.5,1.5,2.3,3.5,2.3,5.5c0,1.2-0.3,2.4-0.8,3.4c-0.2,0.4-0.4,0.7-0.6,1c-0.3,0.4-0.6,0.8-0.9,1.1
	c-0.3,0.3-0.7,0.6-1.1,0.9C19.5,19.4,19.2,19.6,18.8,19.8z M20.7,20.1c0.4-0.3,0.8-0.6,1.1-0.9c0.3-0.3,0.7-0.7,0.9-1.1l3.8,3.8
	c-0.5,0.8-1.3,1.5-2.1,2.1L20.7,20.1z M26,25.3l-0.8-0.8c0.8-0.6,1.5-1.3,2.1-2.1l0.8,0.8C27.5,24,26.7,24.8,26,25.3z M29,26.3
	c-0.3,0.3-0.6,0.4-1,0.4c-0.4,0-0.8-0.2-1-0.4L26.6,26c0.8-0.6,1.5-1.3,2.1-2.1l0.4,0.3c0.3,0.3,0.4,0.6,0.4,1
	C29.4,25.7,29.3,26,29,26.3z"/>
</svg>
