<?xml version="1.0" encoding="utf-8"?>
<!-- Generator: Adobe Illustrator 18.0.0, SVG Export Plug-In . SVG Version: 6.00 Build 0)  -->
<!DOCTYPE svg PUBLIC "-//W3C//DTD SVG 1.1//EN" "http://www.w3.org/Graphics/SVG/1.1/DTD/svg11.dtd">
<svg version="1.1" id="Capa_1" xmlns="http://www.w3.org/2000/svg" xmlns:xlink="http://www.w3.org/1999/xlink" x="0px" y="0px"
	 viewBox="0 0 38 32" enable-background="new 0 0 38 32" xml:space="preserve">
<g>
	<defs>
		<rect id="SVGID_1_" x="6.4" y="3.7" width="24.3" height="24.3"/>
	</defs>
	<clipPath id="SVGID_2_">
		<use xlink:href="#SVGID_1_"  overflow="visible"/>
	</clipPath>
</g>
<g>
	<path fill="#1F4D9A" d="M16.1,27.9c-1.3,0-2.3-1-2.3-2.3c0-1.3,1-2.3,2.3-2.3s2.3,1,2.3,2.3C18.4,26.9,17.4,27.9,16.1,27.9z
		 M16.1,24.4c-0.7,0-1.3,0.6-1.3,1.3c0,0.7,0.6,1.3,1.3,1.3c0.7,0,1.3-0.6,1.3-1.3C17.4,24.9,16.8,24.4,16.1,24.4z"/>
	<path fill="#1F4D9A" d="M27.7,27.9c-1.3,0-2.3-1-2.3-2.3c0-1.3,1-2.3,2.3-2.3s2.3,1,2.3,2.3C30,26.9,28.9,27.9,27.7,27.9z
		 M27.7,24.4c-0.7,0-1.3,0.6-1.3,1.3c0,0.7,0.6,1.3,1.3,1.3c0.7,0,1.3-0.6,1.3-1.3C28.9,24.9,28.4,24.4,27.7,24.4z"/>
	<path fill="#1F4D9A" d="M29.5,6.9H11l-0.8-3.2c-0.1-0.3-0.4-0.5-0.7-0.5H5.7C5.3,3.2,5,3.5,5,3.9c0,0.4,0.3,0.7,0.7,0.7h3.3
		l0.8,3.2l0,0l2.6,10.5v0l0.9,3.8c0.1,0.3,0.4,0.5,0.7,0.5h15.5c0.4,0,0.7-0.3,0.7-0.7c0-0.4-0.3-0.7-0.7-0.7H14.5l-0.6-2.4h2.7
		c0,0,0,0,0,0l0,0h3.6h0c0,0,0,0,0,0h3.6l0,0l0,0h3.6c0,0,0,0,0,0l0,0h2.1c0.4,0,0.7-0.3,0.7-0.7V7.6C30.2,7.2,29.8,6.9,29.5,6.9z
		 M28.8,12.2h-2.1l-1-3.8h3.1V12.2z M24.3,17.4l-1-3.8h2.1l1,3.8H24.3z M20.8,17.4l-1-3.8h2.1l1,3.8H20.8z M17.2,17.4l-1-3.8h2.1
		l1,3.8H17.2z M17,8.3l1,3.8h-2.1l-1-3.8H17z M20.6,8.3l1,3.8h-2.1l-1-3.8H20.6z M23,12.2l-1-3.8h2.1l1,3.8H23z M13.5,8.3l1,3.8
		h-2.1l-1-3.8H13.5z M12.6,13.6h2.1l1,3.8h-2.1L12.6,13.6z M27.9,17.4l-1-3.8h1.8v3.8H27.9z"/>
</g>
</svg>
