<?xml version="1.0" encoding="utf-8"?>
<!-- Generator: Adobe Illustrator 18.0.0, SVG Export Plug-In . SVG Version: 6.00 Build 0)  -->
<!DOCTYPE svg PUBLIC "-//W3C//DTD SVG 1.1//EN" "http://www.w3.org/Graphics/SVG/1.1/DTD/svg11.dtd">
<svg version="1.1" id="Capa_1" xmlns="http://www.w3.org/2000/svg" xmlns:xlink="http://www.w3.org/1999/xlink" x="0px" y="0px"
	 viewBox="0 0 38 32" enable-background="new 0 0 38 32" xml:space="preserve">
<g>
	<path fill="#1F4D9A" d="M29.3,25.7h-21c-0.2,0-0.4-0.1-0.5-0.4c-0.1-0.2,0-0.5,0.2-0.6l3-2.6c0.1-0.1,0.2-0.1,0.4-0.1h14.9
		c0.1,0,0.3,0,0.4,0.1l3,2.6c0.2,0.2,0.2,0.4,0.2,0.6C29.8,25.6,29.6,25.7,29.3,25.7z M9.8,24.6h18l-1.7-1.5H11.6L9.8,24.6z"/>
	<path fill="#1F4D9A" d="M29.3,24.6h-2.5V13.8l2.2-2c0,0,0,0,0,0c0,0,0,0,0-0.1c0,0,0-0.1,0-0.1c0,0,0,0,0,0c0,0,0,0,0,0
		c0,0,0-0.1,0-0.1c0,0,0,0,0-0.1c0,0,0-0.1,0-0.1c0,0,0-0.1,0-0.1c0,0,0,0,0,0c0,0,0,0,0-0.1c0,0,0,0,0-0.1c0,0,0-0.1-0.1-0.1
		c0,0,0,0,0,0l-9.8-7.2c-0.2-0.1-0.5-0.1-0.7,0L8.7,11c0,0,0,0,0,0c0,0-0.1,0-0.1,0.1c0,0,0,0,0,0.1c0,0,0,0,0,0.1c0,0,0,0,0,0
		c0,0,0,0.1,0,0.1c0,0,0,0.1,0,0.1c0,0,0,0,0,0.1c0,0,0,0.1,0,0.1c0,0,0,0,0,0c0,0,0,0,0,0c0,0,0,0.1,0,0.1c0,0,0,0,0.1,0.1
		c0,0,0,0,0,0l2.1,2v10.8H8.3c-0.3,0-0.6,0.2-0.6,0.6v2.1c0,0.3,0.2,0.6,0.6,0.6h21c0.3,0,0.6-0.2,0.6-0.6v-2.1
		C29.9,24.9,29.6,24.6,29.3,24.6z M20.8,24.6V14.1h2.1v10.5H20.8z M14.8,24.6V14.1h2.1v10.5H14.8z M18,14.1h1.7v10.5H18V14.1z
		 M24,14.1h1.7v10.5H24V14.1z M18.8,5l8.1,5.9H10.7L18.8,5z M27.2,12l-1.1,1h-2.6h-3.2h-2.9h-3.2h-2.6l-1.1-1H27.2z M11.9,14.1h1.7
		v10.5h-1.7V14.1z M28.8,26.8H8.9v-1h2.5h2.8h3.2h2.9h3.2h2.9h2.5V26.8z"/>
	<path fill="#1F4D9A" d="M10.8,21.8H3.6v-5.5h7.2v-1.1H3.7l4.2-5.5h2.5l1.5-1.1H7.6c-0.2,0-0.3,0.1-0.4,0.2l-5.1,6.6
		C2,15.6,2,15.9,2.1,16.1c0.1,0.2,0.3,0.3,0.5,0.3v5.5c-0.3,0-0.5,0.3-0.5,0.6C2,22.7,2.3,23,2.6,23h0.5h7.7V21.8z"/>
	<path fill="#1F4D9A" d="M35.1,21.9v-5.5c0.2,0,0.4-0.1,0.5-0.3c0.1-0.2,0.1-0.4-0.1-0.6l-5.1-6.6c-0.1-0.1-0.3-0.2-0.4-0.2h-4.3
		l1.5,1.1h2.5l4.2,5.5h-7.1v1.1H34v5.5h-7.2V23h7.7h0.5c0.3,0,0.6-0.2,0.6-0.6C35.6,22.1,35.4,21.9,35.1,21.9z"/>
</g>
</svg>
