<?xml version="1.0" encoding="utf-8"?>
<!-- Generator: Adobe Illustrator 18.0.0, SVG Export Plug-In . SVG Version: 6.00 Build 0)  -->
<!DOCTYPE svg PUBLIC "-//W3C//DTD SVG 1.1//EN" "http://www.w3.org/Graphics/SVG/1.1/DTD/svg11.dtd">
<svg version="1.1" id="Capa_1" xmlns="http://www.w3.org/2000/svg" xmlns:xlink="http://www.w3.org/1999/xlink" x="0px" y="0px"
	 viewBox="0 0 38 32" enable-background="new 0 0 38 32" xml:space="preserve">
<g>
	<defs>
		<rect id="SVGID_1_" x="6.4" y="3.7" width="24.3" height="24.3"/>
	</defs>
	<clipPath id="SVGID_2_">
		<use xlink:href="#SVGID_1_"  overflow="visible"/>
	</clipPath>
</g>
<g>
	<path fill="#1F4D9A" d="M29.4,22.1c-1.8,0-3.3-0.9-3.3-2.1c0-1.2,1.4-2.1,3.3-2.1c1.8,0,3.3,0.9,3.3,2.1
		C32.7,21.2,31.3,22.1,29.4,22.1z M29.4,18.9c-1.2,0-2.2,0.5-2.2,1c0,0.5,0.9,1,2.2,1c1.2,0,2.2-0.5,2.2-1
		C31.6,19.5,30.6,18.9,29.4,18.9z"/>
	<path fill="#1F4D9A" d="M5.2,22.1c-1.8,0-3.3-0.9-3.3-2.1c0-1.2,1.4-2.1,3.3-2.1c1.8,0,3.3,0.9,3.3,2.1C8.5,21.2,7.1,22.1,5.2,22.1
		z M5.2,18.9c-1.2,0-2.2,0.5-2.2,1c0,0.5,0.9,1,2.2,1c1.2,0,2.2-0.5,2.2-1C7.4,19.5,6.4,18.9,5.2,18.9z"/>
	<path fill="#1F4D9A" d="M29.4,19.2c-0.2,0-0.3-0.1-0.4-0.2c-0.2-0.3-5.2-6.5-5.2-10.7c0-3.1,2.5-5.6,5.6-5.6c3.1,0,5.6,2.5,5.6,5.6
		c0,4.2-5,10.4-5.2,10.7C29.7,19.1,29.6,19.2,29.4,19.2z M29.4,3.8c-2.5,0-4.5,2-4.5,4.5c0,3.1,3.3,7.8,4.5,9.4
		c1.2-1.6,4.5-6.3,4.5-9.4C33.9,5.8,31.9,3.8,29.4,3.8z"/>
	<path fill="#1F4D9A" d="M29.4,11.4c-1.7,0-3-1.4-3-3c0-1.7,1.4-3,3-3c1.7,0,3,1.4,3,3C32.4,10,31.1,11.4,29.4,11.4z M29.4,6.4
		c-1.1,0-1.9,0.9-1.9,1.9c0,1.1,0.9,1.9,1.9,1.9c1.1,0,1.9-0.9,1.9-1.9C31.3,7.3,30.5,6.4,29.4,6.4z"/>
	<path fill="#1F4D9A" d="M13.2,25.9c-1.8,0-3.3-0.9-3.3-2.1c0-1.2,1.4-2.1,3.3-2.1c1.8,0,3.3,0.9,3.3,2.1
		C16.5,24.9,15,25.9,13.2,25.9z M13.2,22.7c-1.2,0-2.2,0.5-2.2,1s0.9,1,2.2,1s2.2-0.5,2.2-1S14.4,22.7,13.2,22.7z"/>
	<path fill="#1F4D9A" d="M22.8,28.3c-1.8,0-3.3-0.9-3.3-2.1c0-1.2,1.4-2.1,3.3-2.1c1.8,0,3.3,0.9,3.3,2.1
		C26.1,27.4,24.6,28.3,22.8,28.3z M22.8,25.2c-1.2,0-2.2,0.5-2.2,1c0,0.5,0.9,1,2.2,1c1.2,0,2.2-0.5,2.2-1
		C25,25.7,24,25.2,22.8,25.2z"/>
	<path fill="#1F4D9A" d="M13.2,25.9c-0.5,0-1-0.1-1.4-0.2c-0.6,0.3-1.5,0.6-2.5,0.6c-1.9,0-3.3-0.8-3.3-1.5V22
		c-0.2,0-0.5,0.1-0.7,0.1c-0.3,0-0.5,0-0.7-0.1v2.7c0,1.7,2.1,3,4.8,3c2.1,0,3.8-0.8,4.4-1.9C13.5,25.9,13.4,25.9,13.2,25.9z"/>
	<path fill="#1F4D9A" d="M29.4,22.1c-0.3,0-0.5,0-0.7-0.1v2.7c0,0.6-1.1,1.3-2.6,1.5c0,0.6-0.4,1.1-1,1.5c0.1,0,0.2,0,0.3,0
		c2.7,0,4.8-1.3,4.8-3V22C29.9,22.1,29.7,22.1,29.4,22.1z"/>
	<path fill="#1F4D9A" d="M20.6,22.2v2.4c0.4-0.2,0.9-0.4,1.5-0.5v-1.9c0-1.7-2.1-3-4.8-3c-2.4,0-4.3,1-4.7,2.4c0.2,0,0.4,0,0.6,0
		c0.4,0,0.7,0,1.1,0.1c0.5-0.5,1.6-1,3.1-1C19.2,20.7,20.6,21.5,20.6,22.2z"/>
</g>
</svg>
